<?xml version="1.0" encoding="UTF-8"?> <svg xmlns="http://www.w3.org/2000/svg" xmlns:xlink="http://www.w3.org/1999/xlink" version="1.1" id="Layer_1" x="0px" y="0px" width="833px" height="328px" viewBox="0 0 833 328" xml:space="preserve"> <rect x="17.311" y="20.224" fill-rule="evenodd" clip-rule="evenodd" fill="#FFFFFF" width="807.267" height="288.277"></rect> <rect x="17.311" y="20.224" fill="none" stroke="#000000" stroke-width="1.091" stroke-linecap="round" stroke-linejoin="round" stroke-miterlimit="2.613" width="807.267" height="288.277"></rect> <rect x="32.785" y="37.155" fill-rule="evenodd" clip-rule="evenodd" fill="#FFF200" width="776.32" height="254.412"></rect> <rect x="32.785" y="37.155" fill="none" stroke="#000000" stroke-width="1.091" stroke-miterlimit="2.613" width="776.32" height="254.412"></rect> <polygon fill-rule="evenodd" clip-rule="evenodd" fill="#00AEEF" points="807.979,236.499 34.044,290.464 34.044,95.665 807.813,38.413 "></polygon> <g> <path fill-rule="evenodd" clip-rule="evenodd" fill="#FFFFFF" d="M471.384,124.656l-13.996,0.989V81.786l110.547-7.442v43.858 l-17.999,1.251v48.489v0.555c-0.276,0.169,4.474-12.779,15.801-16.612l2.692-0.613l35.613-1.65l-0.001,38.95l24.265-0.498V114.35 l-13.994,0.989V71.483l110.862-7.445v43.858l-14.419,0.325v74.39l14.419-0.99v43.858l-132.411,7.444v-5.467 c-2.487,2.787-4.896,4.441-8.165,5.948l-2.728,0.89l-19.144,1.53v0.255l-116.634,7.442v-7.105 c-3.26,4.365-15.321,6.423-20.18,8.013l-19.15,1.527v0.256l-105.331,7.444v-0.026l-114.802,6.554l-0.097,0.342l-64.29,4.158 v-43.816l11.348-0.767l21.165-75.131l-8.766,0.635l0.001-43.869l102.748-7.61l25.762,116.642l30.898-1.262v0.013l10.026-0.71 v-74.018l-13.993,0.989V91.92l109.508-7.444v43.235l-15.974,1.291v47.081v-0.637c3.282-8.921,6.336-10.559,14.817-13.428 l2.685-0.613l35.6-1.65v39.481l23.319-0.564V124.656z"></path> <path fill-rule="evenodd" clip-rule="evenodd" fill="#ED1C24" d="M556.005,206.199c0.037-0.001,0.074-0.001,0.116-0.003 l1.066-0.076v0.047c2.273-0.119,5.232-0.668,5.709-2.824l2.861-26.759c1.055-5.134,3.88-11.173,10.602-12.347l17.811-0.942v44.088 c-0.283,7.172-3.392,12.673-8.058,13.91l-28.926,2.307v0.153l-81.423,5.755v-17.635l13.994-0.989V110.643l-13.994,0.989V93.996 l81.423-5.753v17.635l-17.723,1.251v100.242l16.54-1.168V206.199z M398.772,216.359c0.042-0.001,0.076-0.001,0.117-0.004 l1.066-0.073v0.047c2.271-0.12,5.235-0.67,5.712-2.824l2.86-26.759c1.052-5.137,3.877-11.176,10.6-12.35l17.814-0.937v44.087 c-0.285,7.17-3.393,12.673-8.058,13.907l-28.928,2.311v0.152l-81.424,5.753v-17.635l13.992-0.989V120.803l-13.992,0.99v-17.635 l81.424-5.755v17.635l-17.723,1.252v100.242l16.539-1.169V216.359z M262.14,224.142l-22.48-98.244l0.153-0.011l-4.07-17.302 l-74.288,5.338v17.635l13.347-0.966l-28.724,101.947l-8.377,0.565v17.635l43.347-2.804v-17.634l-13.03,0.88l6.861-24.353 l32.414-0.866l4.999,21.836l-17.959,1.268v17.637l78.365-5.672v-17.637L262.14,224.142z M192.872,142.945l10.517,45.95 l-23.636,0.633L192.872,142.945z M697.696,96.548v99.947l13.993-0.99v17.634l-81.423,5.755v-17.635l13.996-0.989v-99.947 l-13.996,0.989V83.676l81.423-5.753v17.635L697.696,96.548z"></path> <path fill="none" stroke="#FFFFFB" stroke-width="0.437" stroke-linecap="round" stroke-linejoin="round" stroke-miterlimit="10" d=" M556.005,206.199c0.037-0.001,0.074-0.001,0.116-0.003l1.066-0.076v0.047c2.273-0.119,5.232-0.668,5.709-2.824l2.861-26.759 c1.055-5.134,3.88-11.173,10.602-12.347l17.811-0.942v44.088c-0.283,7.172-3.392,12.673-8.058,13.91l-28.926,2.307v0.153 l-81.423,5.755v-17.635l13.994-0.989V110.643l-13.994,0.989V93.996l81.423-5.753v17.635l-17.723,1.251v100.242l16.54-1.168V206.199 z M398.772,216.359c0.042-0.001,0.076-0.001,0.117-0.004l1.066-0.073v0.047c2.271-0.12,5.235-0.67,5.712-2.824l2.86-26.759 c1.052-5.137,3.877-11.176,10.6-12.35l17.814-0.937v44.087c-0.285,7.17-3.393,12.673-8.058,13.907l-28.928,2.311v0.152 l-81.424,5.753v-17.635l13.992-0.989V120.803l-13.992,0.99v-17.635l81.424-5.755v17.635l-17.723,1.252v100.242l16.539-1.169 V216.359z M262.14,224.142l-22.48-98.244l0.153-0.011l-4.07-17.302l-74.288,5.338v17.635l13.347-0.966l-28.724,101.947 l-8.377,0.565v17.635l43.347-2.804v-17.634l-13.03,0.88l6.861-24.353l32.414-0.866l4.999,21.836l-17.959,1.268v17.637l78.365-5.672 v-17.637L262.14,224.142z M192.872,142.945l10.517,45.95l-23.636,0.633L192.872,142.945z M697.696,96.548v99.947l13.993-0.99 v17.634l-81.423,5.755v-17.635l13.996-0.989v-99.947l-13.996,0.989V83.676l81.423-5.753v17.635L697.696,96.548z"></path> </g> </svg> 